<svg id="Layer_1" data-name="Layer 1" xmlns="http://www.w3.org/2000/svg" viewBox="0 0 412.65 280.63"><defs><style>.cls-1{fill:#fff;}</style></defs><title>logos-registered</title><path class="cls-1" d="M200.21,20.64L198,7.61C197.34,3.42,195.71,0,194.41,0s-2.35,3.47-2.35,7.71v3.41a7.73,7.73,0,0,1-7.71,7.71h-3.41l-0.73,0v9.37l0.73,0h12.82a6.33,6.33,0,0,0,6.44-7.61"/><path class="cls-1" d="M169.47,9.61H148.69l-0.51,0H126.83a4.71,4.71,0,0,0-.73.06v-2C126.1,3.47,125,0,123.74,0s-2.92,3.42-3.62,7.61l-2.17,13a6.33,6.33,0,0,0,6.44,7.61h12.82a11.69,11.69,0,0,0,3.65-.57,4.71,4.71,0,0,1-4.62,3.84h-18A4.71,4.71,0,0,1,113.63,26l1.82-10.92a4.71,4.71,0,0,0-4.64-5.48H21.33A4.7,4.7,0,0,0,17,12.4L0.19,38a1.17,1.17,0,0,0,.09,1.4l3.27,3.86a1.17,1.17,0,0,0,1.62.16l11.45-9V89.26A4.71,4.71,0,0,0,21.33,94h25.4a4.71,4.71,0,0,0,4.71-4.71V70.19a4.71,4.71,0,0,1,4.71-4.71h63.41a4.71,4.71,0,0,1,4.71,4.71V89.26A4.71,4.71,0,0,0,129,94h25.4a4.71,4.71,0,0,0,4.71-4.71V68.74H145.59A7.73,7.73,0,0,1,137.88,61V47.83a7.7,7.7,0,0,1,3.1-6.16V57.42a7.73,7.73,0,0,0,7.71,7.71h20.79a7.73,7.73,0,0,0,7.71-7.71V17.32a7.73,7.73,0,0,0-7.71-7.71"/><path class="cls-1" d="M201.63,4.92a4.9,4.9,0,1,1,9.8,0A4.9,4.9,0,0,1,201.63,4.92Zm8.62,0A3.52,3.52,0,0,0,206.53,1a3.56,3.56,0,0,0-3.76,3.87,3.54,3.54,0,0,0,3.76,3.83A3.5,3.5,0,0,0,210.25,4.9Zm-5.34-2.44h1.72c0.88,0,1.77.25,1.77,1.49a1.26,1.26,0,0,1-1.16,1.28l1.16,2h-1.05L206.28,5.3h-0.42V7.21h-0.95V2.46Zm1.81,2.17a0.7,0.7,0,0,0,.76-0.69,0.64,0.64,0,0,0-.76-0.63h-0.86V4.62h0.86Z"/><path class="cls-1" d="M0,115.53H28.55c13.56,0,22.7,6.57,22.7,19.31,0,10.37-7.09,16.64-14,18.8a20.57,20.57,0,0,1,4.83,6.57C45,166.07,46.94,172.54,53,172.54a8,8,0,0,0,2.77-.51l-1.34,12.22a33.6,33.6,0,0,1-6.88.92c-8.22,0-12.94-3.18-17.77-14.17-2.05-4.93-4.93-13.56-8.73-13.56h-3.9v27.42H0V115.53ZM17.15,128v17h6.16c4.93,0,10.68-1.54,10.68-8.93C34,130,30.1,128,25.37,128H17.15Z"/><path class="cls-1" d="M74.46,115.53H91.81l23.42,69.33H97.87l-4.31-13.15H70.35l-4.21,13.15h-15Zm0,43.45H89.35L84.62,144.4a67.81,67.81,0,0,1-2.36-11.91H81.85a87.92,87.92,0,0,1-2.57,11.81Z"/><path class="cls-1" d="M115.94,115.53h18.39l18.18,34.41c1.54,3,3.59,8.22,5.24,12.32h0.41c-0.2-3.9-.72-9.45-0.72-13.45V115.53h14.07v69.33h-18l-18.9-34.31a96,96,0,0,1-5-11.3h-0.41c0.31,3.9.82,8.53,0.82,12.32v33.28H115.94V115.53Z"/><path class="cls-1" d="M175.19,149.74c0-25.06,12.43-35.44,31.63-35.44,20.23,0,28.35,11.09,26.09,26.09l-16,1.44c1.75-11-2.57-15.41-10.37-15.41C199,126.42,193,132,193,149.84c0,18.9,6.57,23.73,14.07,23.73,7.09,0,12.84-4.42,11.61-13.46l15,1.54c1.13,14.07-9,24.44-27.53,24.44-18.8,0-30.92-11.09-30.92-36.36"/><polygon class="cls-1" points="239.12 115.53 256.27 115.53 256.27 141.73 277.33 141.73 277.33 115.53 294.48 115.53 294.48 184.86 277.33 184.86 277.33 155.49 256.27 155.49 256.27 184.86 239.12 184.86 239.12 115.53"/><polygon class="cls-1" points="299.35 115.53 345.26 115.53 345.26 128.27 316.5 128.27 316.5 143.16 340.64 143.16 340.64 155.9 316.5 155.9 316.5 172.13 346.29 172.13 346.29 184.86 299.35 184.86 299.35 115.53"/><path class="cls-1" d="M349.57,115.53h28.55c13.56,0,22.7,6.57,22.7,19.31,0,10.37-7.09,16.64-14,18.8a20.56,20.56,0,0,1,4.83,6.57c2.88,5.85,4.83,12.32,10.89,12.32a8,8,0,0,0,2.77-.51L404,184.25a33.62,33.62,0,0,1-6.88.92c-8.22,0-12.94-3.18-17.77-14.17-2.05-4.93-4.93-13.56-8.73-13.56h-3.9v27.42H349.57V115.53ZM366.72,128v17h6.16c4.93,0,10.68-1.54,10.68-8.93,0-6.06-3.9-8.12-8.63-8.12h-8.22Z"/><path class="cls-1" d="M0,205.68H17.15v56.58H46V275H0V205.68Z"/><path class="cls-1" d="M65.23,205.68H82.58L106,275H88.64l-4.31-13.14H61.12L56.91,275h-15Zm0,43.43H80.12L75.4,234.53A67.79,67.79,0,0,1,73,222.62H72.62a88,88,0,0,1-2.57,11.81Z"/><path class="cls-1" d="M108.35,205.68H138c12.22,0,21.46,4.11,21.46,16.74,0,9.55-5.24,13.25-14.17,15.2V238c10.16,1.23,16.33,6.57,16.33,16.94,0,13.55-9.75,20-22.8,20h-30.5V205.68ZM133,232.27c4.52,0,9-1.23,9-7.19s-4-7-8-7H125.4v14.17H133Zm1.64,30.29c5.24,0,9.76-2.57,9.76-9.45,0-6-4.52-8.42-9.76-8.42H125.4v17.87h9.24Z"/><path class="cls-1" d="M179.28,252.19c-1.23,5.54.92,11.91,11.81,11.91,7.19,0,9.65-2.88,9.65-6.67,0-5.75-5.75-7.19-12.53-9.65-10.17-3.49-22.69-8.42-22.69-22.9,0-12.94,10-20.84,26.9-20.43,20.74,0.41,26.59,12.63,24.34,23.21L201,229.09c1-8-1.85-12.53-10-12.53-5.44,0-8.52,2.05-8.52,6.37,0,5.75,5.55,7.5,12.32,9.86,10.47,3.49,22.9,7.7,22.9,22.08,0,12.42-9.24,21.36-27.31,21.36-16.94,0-28.55-7.8-26.18-22.59Z"/></svg>